<?xml version="1.0" encoding="UTF-8" standalone="no"?>
<!DOCTYPE svg PUBLIC "-//W3C//DTD SVG 1.1//EN"
 "http://www.w3.org/Graphics/SVG/1.1/DTD/svg11.dtd">
<!-- Generated by graphviz version 2.47.0 (20210316.0004)
 -->
<!-- Title: dependencies Pages: 1 -->
<svg width="504pt" height="284pt"
 viewBox="0.00 0.00 504.00 284.00" xmlns="http://www.w3.org/2000/svg" xmlns:xlink="http://www.w3.org/1999/xlink">
<g id="graph0" class="graph" transform="scale(1 1) rotate(0) translate(4 280)">
<title>dependencies</title>
<polygon fill="white" stroke="transparent" points="-4,4 -4,-280 500,-280 500,4 -4,4"/>
<text text-anchor="start" x="227.01" y="-42.4" font-family="Times-12" font-weight="bold" font-size="14.00">Legend</text>
<polygon fill="#ffffb3" stroke="transparent" points="14,-10 14,-30 34,-30 34,-10 14,-10"/>
<text text-anchor="start" x="37.63" y="-15.4" font-family="Times-12" font-size="14.00"> &#160;Declarations</text>
<polygon fill="#8dd3c7" stroke="transparent" points="127,-10 127,-30 147,-30 147,-10 127,-10"/>
<text text-anchor="start" x="150.73" y="-15.4" font-family="Times-12" font-size="14.00"> &#160;Module</text>
<polygon fill="#80b1d3" stroke="transparent" points="213,-10 213,-30 233,-30 233,-10 213,-10"/>
<text text-anchor="start" x="236.78" y="-15.4" font-family="Times-12" font-size="14.00"> &#160;Bootstrap</text>
<polygon fill="#fdb462" stroke="transparent" points="310,-10 310,-30 330,-30 330,-10 310,-10"/>
<text text-anchor="start" x="333.67" y="-15.4" font-family="Times-12" font-size="14.00"> &#160;Providers</text>
<polygon fill="#fb8072" stroke="transparent" points="406,-10 406,-30 426,-30 426,-10 406,-10"/>
<text text-anchor="start" x="429.73" y="-15.4" font-family="Times-12" font-size="14.00"> &#160;Exports</text>
<g id="clust1" class="cluster">
<title>cluster_LoginCollegeModule</title>
<polygon fill="none" stroke="black" stroke-dasharray="1,5" points="172,-70 172,-268 324,-268 324,-70 172,-70"/>
</g>
<g id="clust2" class="cluster">
<title>cluster_LoginCollegeModule_declarations</title>
<polygon fill="none" stroke="black" points="194,-78 194,-130 302,-130 302,-78 194,-78"/>
</g>
<g id="clust5" class="cluster">
<title>cluster_LoginCollegeModule_exports</title>
<polygon fill="none" stroke="black" points="192,-208 192,-260 304,-260 304,-208 192,-208"/>
</g>
<!-- LoginCollege -->
<g id="node1" class="node">
<title>LoginCollege</title>
<polygon fill="#ffffb3" stroke="black" points="294.49,-122 201.51,-122 201.51,-86 294.49,-86 294.49,-122"/>
<text text-anchor="middle" x="248" y="-99.8" font-family="Times,serif" font-size="14.00">LoginCollege</text>
</g>
<!-- LoginCollegeModule -->
<g id="node2" class="node">
<title>LoginCollegeModule</title>
<polygon fill="#8dd3c7" stroke="black" points="316.04,-187 313.04,-191 292.04,-191 289.04,-187 179.96,-187 179.96,-151 316.04,-151 316.04,-187"/>
<text text-anchor="middle" x="248" y="-164.8" font-family="Times,serif" font-size="14.00">LoginCollegeModule</text>
</g>
<!-- LoginCollege&#45;&gt;LoginCollegeModule -->
<g id="edge1" class="edge">
<title>LoginCollege&#45;&gt;LoginCollegeModule</title>
<path fill="none" stroke="black" d="M248,-122.11C248,-122.11 248,-140.99 248,-140.99"/>
<polygon fill="black" stroke="black" points="244.5,-140.99 248,-150.99 251.5,-140.99 244.5,-140.99"/>
</g>
<!-- LoginCollege  -->
<g id="node3" class="node">
<title>LoginCollege </title>
<polygon fill="#fb8072" stroke="black" points="296.49,-252 199.51,-252 199.51,-216 296.49,-216 296.49,-252"/>
<text text-anchor="middle" x="248" y="-229.8" font-family="Times,serif" font-size="14.00">LoginCollege </text>
</g>
<!-- LoginCollegeModule&#45;&gt;LoginCollege  -->
<g id="edge2" class="edge">
<title>LoginCollegeModule&#45;&gt;LoginCollege </title>
<path fill="none" stroke="black" stroke-dasharray="5,2" d="M248,-187.11C248,-187.11 248,-205.99 248,-205.99"/>
<polygon fill="black" stroke="black" points="244.5,-205.99 248,-215.99 251.5,-205.99 244.5,-205.99"/>
</g>
</g>
</svg>
