<?xml version="1.0" encoding="UTF-8" standalone="no"?>
<!DOCTYPE svg PUBLIC "-//W3C//DTD SVG 1.1//EN"
 "http://www.w3.org/Graphics/SVG/1.1/DTD/svg11.dtd">
<!-- Generated by graphviz version 2.47.0 (20210316.0004)
 -->
<!-- Title: dependencies Pages: 1 -->
<svg width="504pt" height="284pt"
 viewBox="0.00 0.00 504.00 284.00" xmlns="http://www.w3.org/2000/svg" xmlns:xlink="http://www.w3.org/1999/xlink">
<g id="graph0" class="graph" transform="scale(1 1) rotate(0) translate(4 280)">
<title>dependencies</title>
<polygon fill="white" stroke="transparent" points="-4,4 -4,-280 500,-280 500,4 -4,4"/>
<text text-anchor="start" x="227.01" y="-42.4" font-family="Times-12" font-weight="bold" font-size="14.00">Legend</text>
<polygon fill="#ffffb3" stroke="transparent" points="14,-10 14,-30 34,-30 34,-10 14,-10"/>
<text text-anchor="start" x="37.63" y="-15.4" font-family="Times-12" font-size="14.00"> &#160;Declarations</text>
<polygon fill="#8dd3c7" stroke="transparent" points="127,-10 127,-30 147,-30 147,-10 127,-10"/>
<text text-anchor="start" x="150.73" y="-15.4" font-family="Times-12" font-size="14.00"> &#160;Module</text>
<polygon fill="#80b1d3" stroke="transparent" points="213,-10 213,-30 233,-30 233,-10 213,-10"/>
<text text-anchor="start" x="236.78" y="-15.4" font-family="Times-12" font-size="14.00"> &#160;Bootstrap</text>
<polygon fill="#fdb462" stroke="transparent" points="310,-10 310,-30 330,-30 330,-10 310,-10"/>
<text text-anchor="start" x="333.67" y="-15.4" font-family="Times-12" font-size="14.00"> &#160;Providers</text>
<polygon fill="#fb8072" stroke="transparent" points="406,-10 406,-30 426,-30 426,-10 406,-10"/>
<text text-anchor="start" x="429.73" y="-15.4" font-family="Times-12" font-size="14.00"> &#160;Exports</text>
<g id="clust1" class="cluster">
<title>cluster_ProfileLastPage1Module</title>
<polygon fill="none" stroke="black" stroke-dasharray="1,5" points="162,-70 162,-268 334,-268 334,-70 162,-70"/>
</g>
<g id="clust5" class="cluster">
<title>cluster_ProfileLastPage1Module_exports</title>
<polygon fill="none" stroke="black" points="182,-208 182,-260 314,-260 314,-208 182,-208"/>
</g>
<g id="clust2" class="cluster">
<title>cluster_ProfileLastPage1Module_declarations</title>
<polygon fill="none" stroke="black" points="184,-78 184,-130 312,-130 312,-78 184,-78"/>
</g>
<!-- ProfileLastPage1 -->
<g id="node1" class="node">
<title>ProfileLastPage1</title>
<polygon fill="#ffffb3" stroke="black" points="304.41,-122 191.59,-122 191.59,-86 304.41,-86 304.41,-122"/>
<text text-anchor="middle" x="248" y="-99.8" font-family="Times,serif" font-size="14.00">ProfileLastPage1</text>
</g>
<!-- ProfileLastPage1Module -->
<g id="node2" class="node">
<title>ProfileLastPage1Module</title>
<polygon fill="#8dd3c7" stroke="black" points="325.96,-187 322.96,-191 301.96,-191 298.96,-187 170.04,-187 170.04,-151 325.96,-151 325.96,-187"/>
<text text-anchor="middle" x="248" y="-164.8" font-family="Times,serif" font-size="14.00">ProfileLastPage1Module</text>
</g>
<!-- ProfileLastPage1&#45;&gt;ProfileLastPage1Module -->
<g id="edge1" class="edge">
<title>ProfileLastPage1&#45;&gt;ProfileLastPage1Module</title>
<path fill="none" stroke="black" d="M248,-122.11C248,-122.11 248,-140.99 248,-140.99"/>
<polygon fill="black" stroke="black" points="244.5,-140.99 248,-150.99 251.5,-140.99 244.5,-140.99"/>
</g>
<!-- ProfileLastPage1  -->
<g id="node3" class="node">
<title>ProfileLastPage1 </title>
<polygon fill="#fb8072" stroke="black" points="305.91,-252 190.09,-252 190.09,-216 305.91,-216 305.91,-252"/>
<text text-anchor="middle" x="248" y="-229.8" font-family="Times,serif" font-size="14.00">ProfileLastPage1 </text>
</g>
<!-- ProfileLastPage1Module&#45;&gt;ProfileLastPage1  -->
<g id="edge2" class="edge">
<title>ProfileLastPage1Module&#45;&gt;ProfileLastPage1 </title>
<path fill="none" stroke="black" stroke-dasharray="5,2" d="M248,-187.11C248,-187.11 248,-205.99 248,-205.99"/>
<polygon fill="black" stroke="black" points="244.5,-205.99 248,-215.99 251.5,-205.99 244.5,-205.99"/>
</g>
</g>
</svg>
