<?xml version="1.0" encoding="UTF-8" standalone="no"?>
<!DOCTYPE svg PUBLIC "-//W3C//DTD SVG 1.1//EN"
 "http://www.w3.org/Graphics/SVG/1.1/DTD/svg11.dtd">
<!-- Generated by graphviz version 2.47.0 (20210316.0004)
 -->
<!-- Title: dependencies Pages: 1 -->
<svg width="504pt" height="284pt"
 viewBox="0.00 0.00 504.00 284.00" xmlns="http://www.w3.org/2000/svg" xmlns:xlink="http://www.w3.org/1999/xlink">
<g id="graph0" class="graph" transform="scale(1 1) rotate(0) translate(4 280)">
<title>dependencies</title>
<polygon fill="white" stroke="transparent" points="-4,4 -4,-280 500,-280 500,4 -4,4"/>
<text text-anchor="start" x="227.01" y="-42.4" font-family="Times-12" font-weight="bold" font-size="14.00">Legend</text>
<polygon fill="#ffffb3" stroke="transparent" points="14,-10 14,-30 34,-30 34,-10 14,-10"/>
<text text-anchor="start" x="37.63" y="-15.4" font-family="Times-12" font-size="14.00"> &#160;Declarations</text>
<polygon fill="#8dd3c7" stroke="transparent" points="127,-10 127,-30 147,-30 147,-10 127,-10"/>
<text text-anchor="start" x="150.73" y="-15.4" font-family="Times-12" font-size="14.00"> &#160;Module</text>
<polygon fill="#80b1d3" stroke="transparent" points="213,-10 213,-30 233,-30 233,-10 213,-10"/>
<text text-anchor="start" x="236.78" y="-15.4" font-family="Times-12" font-size="14.00"> &#160;Bootstrap</text>
<polygon fill="#fdb462" stroke="transparent" points="310,-10 310,-30 330,-30 330,-10 310,-10"/>
<text text-anchor="start" x="333.67" y="-15.4" font-family="Times-12" font-size="14.00"> &#160;Providers</text>
<polygon fill="#fb8072" stroke="transparent" points="406,-10 406,-30 426,-30 426,-10 406,-10"/>
<text text-anchor="start" x="429.73" y="-15.4" font-family="Times-12" font-size="14.00"> &#160;Exports</text>
<g id="clust1" class="cluster">
<title>cluster_ProfileOverviewPageModule</title>
<polygon fill="none" stroke="black" stroke-dasharray="1,5" points="150,-70 150,-268 346,-268 346,-70 150,-70"/>
</g>
<g id="clust5" class="cluster">
<title>cluster_ProfileOverviewPageModule_exports</title>
<polygon fill="none" stroke="black" points="170,-208 170,-260 326,-260 326,-208 170,-208"/>
</g>
<g id="clust2" class="cluster">
<title>cluster_ProfileOverviewPageModule_declarations</title>
<polygon fill="none" stroke="black" points="172,-78 172,-130 324,-130 324,-78 172,-78"/>
</g>
<!-- ProfileOverviewPage -->
<g id="node1" class="node">
<title>ProfileOverviewPage</title>
<polygon fill="#ffffb3" stroke="black" points="316.01,-122 179.99,-122 179.99,-86 316.01,-86 316.01,-122"/>
<text text-anchor="middle" x="248" y="-99.8" font-family="Times,serif" font-size="14.00">ProfileOverviewPage</text>
</g>
<!-- ProfileOverviewPageModule -->
<g id="node2" class="node">
<title>ProfileOverviewPageModule</title>
<polygon fill="#8dd3c7" stroke="black" points="338.05,-187 335.05,-191 314.05,-191 311.05,-187 157.95,-187 157.95,-151 338.05,-151 338.05,-187"/>
<text text-anchor="middle" x="248" y="-164.8" font-family="Times,serif" font-size="14.00">ProfileOverviewPageModule</text>
</g>
<!-- ProfileOverviewPage&#45;&gt;ProfileOverviewPageModule -->
<g id="edge1" class="edge">
<title>ProfileOverviewPage&#45;&gt;ProfileOverviewPageModule</title>
<path fill="none" stroke="black" d="M248,-122.11C248,-122.11 248,-140.99 248,-140.99"/>
<polygon fill="black" stroke="black" points="244.5,-140.99 248,-150.99 251.5,-140.99 244.5,-140.99"/>
</g>
<!-- ProfileOverviewPage  -->
<g id="node3" class="node">
<title>ProfileOverviewPage </title>
<polygon fill="#fb8072" stroke="black" points="318.01,-252 177.99,-252 177.99,-216 318.01,-216 318.01,-252"/>
<text text-anchor="middle" x="248" y="-229.8" font-family="Times,serif" font-size="14.00">ProfileOverviewPage </text>
</g>
<!-- ProfileOverviewPageModule&#45;&gt;ProfileOverviewPage  -->
<g id="edge2" class="edge">
<title>ProfileOverviewPageModule&#45;&gt;ProfileOverviewPage </title>
<path fill="none" stroke="black" stroke-dasharray="5,2" d="M248,-187.11C248,-187.11 248,-205.99 248,-205.99"/>
<polygon fill="black" stroke="black" points="244.5,-205.99 248,-215.99 251.5,-205.99 244.5,-205.99"/>
</g>
</g>
</svg>
