<?xml version="1.0" encoding="UTF-8" standalone="no"?>
<!DOCTYPE svg PUBLIC "-//W3C//DTD SVG 1.1//EN"
 "http://www.w3.org/Graphics/SVG/1.1/DTD/svg11.dtd">
<!-- Generated by graphviz version 2.47.0 (20210316.0004)
 -->
<!-- Title: dependencies Pages: 1 -->
<svg width="504pt" height="284pt"
 viewBox="0.00 0.00 504.00 284.00" xmlns="http://www.w3.org/2000/svg" xmlns:xlink="http://www.w3.org/1999/xlink">
<g id="graph0" class="graph" transform="scale(1 1) rotate(0) translate(4 280)">
<title>dependencies</title>
<polygon fill="white" stroke="transparent" points="-4,4 -4,-280 500,-280 500,4 -4,4"/>
<text text-anchor="start" x="227.01" y="-42.4" font-family="Times-12" font-weight="bold" font-size="14.00">Legend</text>
<polygon fill="#ffffb3" stroke="transparent" points="14,-10 14,-30 34,-30 34,-10 14,-10"/>
<text text-anchor="start" x="37.63" y="-15.4" font-family="Times-12" font-size="14.00"> &#160;Declarations</text>
<polygon fill="#8dd3c7" stroke="transparent" points="127,-10 127,-30 147,-30 147,-10 127,-10"/>
<text text-anchor="start" x="150.73" y="-15.4" font-family="Times-12" font-size="14.00"> &#160;Module</text>
<polygon fill="#80b1d3" stroke="transparent" points="213,-10 213,-30 233,-30 233,-10 213,-10"/>
<text text-anchor="start" x="236.78" y="-15.4" font-family="Times-12" font-size="14.00"> &#160;Bootstrap</text>
<polygon fill="#fdb462" stroke="transparent" points="310,-10 310,-30 330,-30 330,-10 310,-10"/>
<text text-anchor="start" x="333.67" y="-15.4" font-family="Times-12" font-size="14.00"> &#160;Providers</text>
<polygon fill="#fb8072" stroke="transparent" points="406,-10 406,-30 426,-30 426,-10 406,-10"/>
<text text-anchor="start" x="429.73" y="-15.4" font-family="Times-12" font-size="14.00"> &#160;Exports</text>
<g id="clust1" class="cluster">
<title>cluster_AssessmentTakenPageModule</title>
<polygon fill="none" stroke="black" stroke-dasharray="1,5" points="146,-70 146,-268 350,-268 350,-70 146,-70"/>
</g>
<g id="clust5" class="cluster">
<title>cluster_AssessmentTakenPageModule_exports</title>
<polygon fill="none" stroke="black" points="166,-208 166,-260 330,-260 330,-208 166,-208"/>
</g>
<g id="clust2" class="cluster">
<title>cluster_AssessmentTakenPageModule_declarations</title>
<polygon fill="none" stroke="black" points="168,-78 168,-130 328,-130 328,-78 168,-78"/>
</g>
<!-- AssessmentTakenPage -->
<g id="node1" class="node">
<title>AssessmentTakenPage</title>
<polygon fill="#ffffb3" stroke="black" points="320.29,-122 175.71,-122 175.71,-86 320.29,-86 320.29,-122"/>
<text text-anchor="middle" x="248" y="-99.8" font-family="Times,serif" font-size="14.00">AssessmentTakenPage</text>
</g>
<!-- AssessmentTakenPageModule -->
<g id="node2" class="node">
<title>AssessmentTakenPageModule</title>
<polygon fill="#8dd3c7" stroke="black" points="341.84,-187 338.84,-191 317.84,-191 314.84,-187 154.16,-187 154.16,-151 341.84,-151 341.84,-187"/>
<text text-anchor="middle" x="248" y="-164.8" font-family="Times,serif" font-size="14.00">AssessmentTakenPageModule</text>
</g>
<!-- AssessmentTakenPage&#45;&gt;AssessmentTakenPageModule -->
<g id="edge1" class="edge">
<title>AssessmentTakenPage&#45;&gt;AssessmentTakenPageModule</title>
<path fill="none" stroke="black" d="M248,-122.11C248,-122.11 248,-140.99 248,-140.99"/>
<polygon fill="black" stroke="black" points="244.5,-140.99 248,-150.99 251.5,-140.99 244.5,-140.99"/>
</g>
<!-- AssessmentTakenPage  -->
<g id="node3" class="node">
<title>AssessmentTakenPage </title>
<polygon fill="#fb8072" stroke="black" points="321.79,-252 174.21,-252 174.21,-216 321.79,-216 321.79,-252"/>
<text text-anchor="middle" x="248" y="-229.8" font-family="Times,serif" font-size="14.00">AssessmentTakenPage </text>
</g>
<!-- AssessmentTakenPageModule&#45;&gt;AssessmentTakenPage  -->
<g id="edge2" class="edge">
<title>AssessmentTakenPageModule&#45;&gt;AssessmentTakenPage </title>
<path fill="none" stroke="black" stroke-dasharray="5,2" d="M248,-187.11C248,-187.11 248,-205.99 248,-205.99"/>
<polygon fill="black" stroke="black" points="244.5,-205.99 248,-215.99 251.5,-205.99 244.5,-205.99"/>
</g>
</g>
</svg>
